HIERARCHY
ROOT Hips
{
	OFFSET 0.000000 0.000000 0.000000
	CHANNELS 6 Xposition Yposition Zposition Zrotation Xrotation Yrotation
	JOINT Spine
	{
		OFFSET 0.000000 0.070167 0.000000
		CHANNELS 6 Xposition Yposition Zposition Zrotation Xrotation Yrotation
		JOINT Spine1
		{
			OFFSET 0.000000 0.166666 0.000000
			CHANNELS 6 Xposition Yposition Zposition Zrotation Xrotation Yrotation
			JOINT Neck
			{
				OFFSET 0.000000 0.183780 0.000000
				CHANNELS 6 Xposition Yposition Zposition Zrotation Xrotation Yrotation
				JOINT Head
				{
					OFFSET 0.000000 0.132633 0.017114
					CHANNELS 6 Xposition Yposition Zposition Zrotation Xrotation Yrotation
					End Site
					{
						OFFSET 0.000000 0.171140 0.000000
					}
				}
			}
			JOINT LeftShoulder
			{
				OFFSET 0.034466 0.144174 -0.004091
				CHANNELS 6 Xposition Yposition Zposition Zrotation Xrotation Yrotation
				JOINT LeftArm
				{
					OFFSET 0.121044 0.000000 0.000000
					CHANNELS 6 Xposition Yposition Zposition Zrotation Xrotation Yrotation
					JOINT LeftForeArm
					{
						OFFSET 0.257070 0.000000 0.000000
						CHANNELS 6 Xposition Yposition Zposition Zrotation Xrotation Yrotation
						JOINT LeftHand
						{
							OFFSET 0.224060 0.000000 0.000000
							CHANNELS 6 Xposition Yposition Zposition Zrotation Xrotation Yrotation
							End Site
							{
								OFFSET 0.128355 0.000000 0.000000
							}
						}
					}
				}
			}
			JOINT RightShoulder
			{
				OFFSET -0.033538 0.144174 -0.004091
				CHANNELS 6 Xposition Yposition Zposition Zrotation Xrotation Yrotation
				JOINT RightArm
				{
					OFFSET -0.121044 0.000000 0.000000
					CHANNELS 6 Xposition Yposition Zposition Zrotation Xrotation Yrotation
					JOINT RightForeArm
					{
						OFFSET -0.257070 0.000000 0.000000
						CHANNELS 6 Xposition Yposition Zposition Zrotation Xrotation Yrotation
						JOINT RightHand
						{
							OFFSET -0.224060 0.000000 0.000000
							CHANNELS 6 Xposition Yposition Zposition Zrotation Xrotation Yrotation
							End Site
							{
								OFFSET -0.128355 0.000000 0.000000
							}
						}
					}
				}
			}
		}
	}
	JOINT LeftUpLeg
	{
		OFFSET 0.085570 0.000000 0.000000
		CHANNELS 6 Xposition Yposition Zposition Zrotation Xrotation Yrotation
		JOINT LeftLeg
		{
			OFFSET 0.000000 -0.385526 -0.000000
			CHANNELS 6 Xposition Yposition Zposition Zrotation Xrotation Yrotation
			JOINT LeftFoot
			{
				OFFSET 0.000000 -0.365921 -0.000000
				CHANNELS 6 Xposition Yposition Zposition Zrotation Xrotation Yrotation
				JOINT LeftToeBase
				{
					OFFSET 0.000000 -0.055620 0.128355
					CHANNELS 6 Xposition Yposition Zposition Zrotation Xrotation Yrotation
					End Site
					{
						OFFSET 0.000000 0.000000 0.034228
					}
				}
			}
		}
	}
	JOINT RightUpLeg
	{
		OFFSET -0.085570 0.000000 0.000000
		CHANNELS 6 Xposition Yposition Zposition Zrotation Xrotation Yrotation
		JOINT RightLeg
		{
			OFFSET 0.000000 -0.385526 -0.000000
			CHANNELS 6 Xposition Yposition Zposition Zrotation Xrotation Yrotation
			JOINT RightFoot
			{
				OFFSET 0.000000 -0.365921 -0.000000
				CHANNELS 6 Xposition Yposition Zposition Zrotation Xrotation Yrotation
				JOINT RightToeBase
				{
					OFFSET 0.000000 -0.055620 0.128355
					CHANNELS 6 Xposition Yposition Zposition Zrotation Xrotation Yrotation
					End Site
					{
						OFFSET 0.000000 0.000000 0.034228
					}
				}
			}
		}
	}
}
MOTION
Frames: 6
Frame Time: 0.041667
0.160981 0.850783 0.119255 1.505726 -4.770006 -5.466357 -0.000000 0.070167 0.000000 -0.317538 5.378071 -1.000070 -0.000000 0.166666 0.000000 0.023515 -2.746304 -0.328131 0.000000 0.183780 0.000000 -19.179427 1.652259 -0.975408 -0.000000 0.132633 0.017114 20.492808 17.301383 -9.571048 0.034466 0.144174 -0.004091 4.333175 -5.102593 -16.756788 0.121044 0.000000 0.000000 -33.370129 24.507574 -52.945526 0.257070 0.000000 0.000000 13.271607 -44.516475 -95.198617 0.224060 0.000000 -0.000000 -4.834763 -32.232547 -24.641958 -0.033538 0.144174 -0.004091 -9.325737 0.921606 -0.301202 -0.121044 0.000000 -0.000000 44.520174 26.168079 63.278568 -0.257070 0.000000 0.000000 -20.952468 -44.353462 89.047697 -0.224060 0.000000 0.000000 -0.037889 -27.415295 31.096810 0.085570 0.000000 0.000000 3.235350 -3.674079 -2.033608 0.000000 -0.385526 -0.000000 1.598078 28.409636 6.849293 -0.000000 -0.365921 -0.000000 -17.349427 8.568441 4.441869 -0.000000 -0.055620 0.128355 0.000001 0.000001 -0.000001 -0.085570 -0.000000 0.000000 -8.628814 -7.344081 -3.476151 -0.000000 -0.385526 -0.000000 0.229169 31.785877 33.024422 -0.000000 -0.365921 -0.000000 7.292549 9.095459 -25.976900 0.000000 -0.055620 0.128355 0.000000 -0.000003 0.000000 
0.160919 0.827422 0.117621 1.426264 -4.429475 -5.556092 -0.000000 0.070167 0.000000 -0.362669 5.510501 -0.879267 -0.000000 0.166666 0.000000 0.195981 -2.638243 -0.285224 0.000000 0.183780 0.000000 -18.503097 1.724718 -1.087053 0.000000 0.132633 0.017114 19.907233 16.726150 -9.332093 0.034466 0.144174 -0.004091 4.085873 -4.213537 -16.128559 0.121044 -0.000000 0.000000 -35.357810 25.010746 -52.013390 0.257070 0.000000 0.000000 11.702733 -41.310876 -96.693424 0.224060 -0.000000 -0.000000 -4.538796 -29.779099 -23.842968 -0.033538 0.144174 -0.004091 -8.807481 1.293622 -0.773069 -0.121044 0.000000 0.000000 45.628969 27.254181 61.863708 -0.257070 -0.000000 -0.000000 -20.095217 -42.527087 89.735176 -0.224060 -0.000000 -0.000000 -0.373641 -25.830114 30.655907 0.085570 -0.000000 -0.000000 3.405466 -5.474518 -2.585915 0.000000 -0.385526 -0.000000 1.854474 33.877045 6.201402 0.000000 -0.365921 -0.000000 -18.015071 -2.661020 0.146789 0.000000 -0.055620 0.128355 -0.000000 0.000002 -0.000000 -0.085570 -0.000000 -0.000000 -8.708614 -9.123667 -4.052546 -0.000000 -0.385526 -0.000000 -0.863716 36.666395 33.551221 -0.000000 -0.365921 -0.000000 5.937974 -2.858341 -23.916625 0.000000 -0.055620 0.128355 -0.000001 -0.000007 0.000001 
0.161313 0.803147 0.115846 1.433294 -4.109523 -5.621459 -0.000000 0.070167 0.000000 -0.380350 5.631025 -0.811073 0.000000 0.166666 0.000000 0.096263 -2.480251 -0.266553 -0.000000 0.183780 0.000000 -17.388489 3.396000 -1.118482 0.000000 0.132633 0.017114 18.870061 13.828157 -8.699787 0.034466 0.144174 -0.004091 4.076669 -3.366772 -15.452062 0.121044 -0.000000 0.000000 -37.549617 25.439072 -50.891029 0.257070 -0.000000 0.000000 11.173588 -37.993754 -97.136218 0.224060 -0.000000 -0.000000 -4.617546 -26.426145 -23.473740 -0.033538 0.144174 -0.004091 -8.107604 1.646984 -1.055493 -0.121044 -0.000000 -0.000000 47.263000 27.893173 59.935975 -0.257070 -0.000000 0.000000 -18.774940 -40.164791 90.658679 -0.224060 0.000000 0.000000 -0.882047 -24.076548 30.102163 0.085570 -0.000000 -0.000000 3.505646 -7.036390 -3.184569 0.000000 -0.385526 -0.000000 1.448995 39.025109 2.809616 0.000000 -0.365921 -0.000000 -17.066834 -13.653982 1.632486 -0.000000 -0.055620 0.128355 0.000001 -0.000004 -0.000001 -0.085570 -0.000000 -0.000000 -9.351824 -11.085921 -3.877103 0.000000 -0.385526 -0.000000 -0.364751 41.321709 31.384443 0.000000 -0.365921 -0.000000 3.346807 -12.485845 -19.789078 -0.000000 -0.055620 0.128355 -0.000001 -0.000000 0.000000 
0.162058 0.778029 0.113676 1.461275 -3.753116 -5.642863 -0.000000 0.070167 0.000000 -0.447683 5.810440 -0.730002 -0.000000 0.166666 0.000000 -0.244022 -2.192661 -0.249853 0.000000 0.183780 0.000000 -15.163700 5.175368 -1.634486 -0.000000 0.132633 0.017114 17.057416 10.501180 -8.161136 0.034466 0.144174 -0.004091 4.566014 -2.827351 -14.780470 0.121044 0.000000 0.000000 -40.701278 25.713792 -49.548791 0.257070 0.000000 -0.000000 10.464608 -33.948236 -97.412991 0.224060 -0.000000 -0.000000 -4.862141 -22.545802 -22.897700 -0.033538 0.144174 -0.004091 -6.892481 1.563628 -1.659511 -0.121044 0.000000 -0.000000 48.523891 28.670887 57.552465 -0.257070 -0.000000 -0.000000 -16.590772 -37.748403 91.989971 -0.224060 0.000000 -0.000000 -0.703130 -22.934988 29.666681 0.085570 -0.000000 -0.000000 3.719979 -8.490739 -3.400096 -0.000000 -0.385526 -0.000000 0.348553 43.138317 -0.136562 0.000000 -0.365921 -0.000000 -16.905777 -23.938888 4.856696 -0.000000 -0.055620 0.128355 0.000000 -0.000003 -0.000001 -0.085570 -0.000000 0.000000 -10.093111 -13.598402 -4.931995 0.000000 -0.385526 -0.000000 -0.305355 46.597265 31.975476 0.000000 -0.365921 -0.000000 -4.211627 -18.071407 -19.545483 -0.000000 -0.055620 0.128355 -0.000000 0.000002 -0.000000 
0.163248 0.752626 0.110269 1.576079 -3.020257 -5.568062 0.000000 0.070167 0.000000 -0.424821 5.772954 -0.790695 -0.000000 0.166666 0.000000 -0.989435 -1.341615 -0.278941 -0.000000 0.183780 0.000000 -12.011744 4.298992 -2.589984 -0.000000 0.132633 0.017114 14.476675 9.672764 -7.808183 0.034466 0.144174 -0.004091 5.541924 -2.590196 -13.560929 0.121044 0.000000 0.000000 -44.548447 25.386362 -48.153554 0.257070 0.000000 0.000000 8.171452 -28.424455 -98.368159 0.224060 0.000000 -0.000000 -4.466346 -18.967644 -21.371727 -0.033538 0.144174 -0.004091 -5.523108 1.109141 -3.264956 -0.121044 0.000000 -0.000000 49.595516 30.010164 55.753294 -0.257070 0.000000 -0.000000 -14.429048 -35.102750 92.836423 -0.224060 -0.000000 -0.000000 -1.726066 -22.068964 28.547015 0.085570 -0.000000 -0.000000 3.723821 -10.976666 -2.312038 -0.000000 -0.385526 -0.000000 0.629230 47.512111 -3.858466 0.000000 -0.365921 -0.000000 -13.251025 -32.422413 7.473855 -0.000000 -0.055620 0.128355 -0.000001 0.000003 0.000001 -0.085570 -0.000000 0.000000 -10.994102 -16.530724 -7.042588 0.000000 -0.385526 -0.000000 -1.153189 52.221219 34.365465 0.000000 -0.365921 -0.000000 -11.027536 -23.253873 -21.989980 -0.000000 -0.055620 0.128355 -0.000000 0.000002 0.000000 
0.164431 0.729401 0.104283 1.578322 -1.407674 -5.497870 0.000000 0.070167 0.000000 -0.245065 5.342876 -0.845444 0.000000 0.166666 0.000000 -1.770550 -0.427647 -0.291307 0.000000 0.183780 0.000000 -8.837863 1.194837 -3.593240 0.000000 0.132633 0.017114 11.924743 11.119553 -7.654701 0.034466 0.144174 -0.004091 7.068939 -2.123208 -12.077713 0.121044 0.000000 0.000000 -48.395852 24.734243 -47.250043 0.257070 0.000000 0.000000 5.365215 -22.304008 -98.727693 0.224060 0.000000 0.000000 -3.673507 -15.772047 -20.083642 -0.033538 0.144174 -0.004091 -4.677980 1.811938 -5.377271 -0.121044 -0.000000 -0.000000 54.096188 28.771684 54.216464 -0.257070 0.000000 -0.000000 -10.133071 -29.108989 94.371242 -0.224060 0.000000 -0.000000 -2.024285 -19.554391 27.568971 0.085570 0.000000 0.000000 3.867848 -15.329743 0.036817 -0.000000 -0.385526 -0.000000 3.595243 53.330243 -8.032407 0.000000 -0.365921 -0.000000 -9.727018 -38.412834 7.052806 -0.000000 -0.055620 0.128355 0.000000 -0.000000 -0.000000 -0.085570 0.000000 -0.000000 -11.607131 -20.839455 -10.328116 0.000000 -0.385526 -0.000000 -5.356249 57.665511 39.091546 -0.000000 -0.365921 -0.000000 -15.097717 -28.094414 -21.687123 -0.000000 -0.055620 0.128355 -0.000001 0.000005 0.000000 
